# xmcd CD database file
#
# Track frame offsets:
#	150
#	23557
#	45632
#	69072
#
# Disc length: 1214 seconds
#
# Revision: 0
# Processed by: cddbd v1.5PL3 Copyright (c) Steve Scherf et al.
# Submitted via: CDex 1.51
#
DISCID=2304bc04
DTITLE=オノ･アヤコ - Jericho
DYEAR=2003
DGENRE=JPop
TTITLE0=Jericho
TTITLE1=悲しみの森
TTITLE2=Jericho (Instrumental)
TTITLE3=悲しみの森 (Instrumental)
EXTD=YEAR: 2003
EXTT0=
EXTT1=
EXTT2=
EXTT3=
PLAYORDER=
